<svg version="1.1" id="Layer_1" xmlns="http://www.w3.org/2000/svg" xmlns:xlink="http://www.w3.org/1999/xlink" x="0px" y="0px"
	 width="100%" viewBox="0 0 512 512" enable-background="new 0 0 512 512" xml:space="preserve">
<path fill="#FFFFFF" opacity="1.000000" stroke="none" 
	d="
M237.000000,1.000000 
	C328.951263,1.000000 420.902496,1.000000 512.926880,1.000000 
	C512.926880,171.666656 512.926880,342.333313 512.922363,513.000000 
	C500.590973,513.000000 488.264130,513.000000 475.573761,512.658508 
	C478.226044,510.053131 479.453918,507.157654 479.048462,503.307434 
	C478.222595,495.465424 477.903259,487.566528 476.957306,479.741547 
	C474.995392,463.512817 469.277557,448.324188 461.392273,434.279633 
	C453.473511,420.175446 444.117371,406.760193 431.064178,396.644958 
	C422.553375,390.049622 414.200348,383.038574 404.930450,377.676697 
	C381.910400,364.361511 356.719452,358.718781 330.166901,358.989075 
	C323.228210,359.059692 316.288177,358.999695 309.000397,358.999695 
	C309.000397,350.954529 309.125732,343.483856 308.936127,336.021210 
	C308.864502,333.202087 310.047028,331.856781 312.168365,330.098267 
	C320.917175,322.845856 330.227661,315.967529 337.644653,307.477814 
	C351.331299,291.811646 360.491364,273.437256 364.950714,252.954407 
	C365.618622,249.886520 367.099213,248.148758 369.806061,246.425842 
	C373.883575,243.830490 377.805389,240.620483 380.898865,236.923309 
	C388.189850,228.209320 391.593872,217.747192 393.193481,206.577621 
	C394.394287,198.192780 394.975281,189.975388 391.482391,181.911621 
	C387.990845,173.850998 381.964264,168.532562 373.697357,165.052811 
	C374.901978,163.392456 375.882812,161.907593 376.995392,160.528992 
	C383.413116,152.576492 388.264771,143.739212 390.931915,133.902374 
	C393.825714,123.229645 394.707306,112.455383 393.162354,101.272324 
	C390.683502,83.329430 382.659790,68.345345 370.115051,55.903976 
	C362.459473,48.311440 352.921173,42.885063 342.622528,39.354332 
	C332.777771,35.979218 322.427948,33.640205 312.157806,35.317787 
	C306.080078,36.310555 302.840057,34.406590 298.940247,30.601515 
	C287.175385,19.122391 273.182037,11.089738 257.564758,6.090138 
	C250.854385,3.941924 243.863464,2.670032 237.000000,1.000000 
z"/>
<path fill="#FFFFFF" opacity="1.000000" stroke="none" 
	d="
M40.000000,513.000000 
	C27.007505,513.000000 14.015012,513.000000 1.016889,513.000000 
	C1.011259,342.439392 1.011259,171.878769 1.011259,1.000000 
	C69.687233,1.000000 138.374954,1.000000 207.352493,1.368346 
	C205.988403,1.858155 204.290970,1.780785 202.687302,2.131749 
	C186.144501,5.752180 170.658401,11.823378 156.954254,22.002810 
	C142.515930,32.727596 130.980881,46.009636 123.071465,62.123066 
	C115.332672,77.888924 111.877869,94.597893 111.787834,112.373077 
	C111.665115,136.601639 119.405632,157.849426 132.756790,177.786331 
	C123.752007,185.393951 119.066414,195.375290 120.186142,207.183548 
	C120.963234,215.378571 122.569267,223.748260 125.434929,231.431976 
	C129.623566,242.662964 136.231186,252.426987 148.395401,256.905426 
	C149.577179,257.340515 150.496323,259.100616 151.081192,260.444275 
	C154.445953,268.174103 157.350525,276.119568 161.011322,283.702179 
	C169.823303,301.954407 182.798691,316.705322 199.490799,328.230042 
	C201.859818,329.865692 205.459244,331.971283 205.649277,334.111511 
	C206.376114,342.298157 205.943069,350.587830 205.943069,359.999268 
	C192.316559,359.999268 179.331482,359.222595 166.488617,360.240326 
	C155.845657,361.083740 144.999054,362.926788 134.895340,366.288574 
	C111.324448,374.131226 90.714073,386.967377 73.786087,405.573425 
	C60.044182,420.677612 49.684635,437.615692 42.944050,456.853455 
	C38.544266,469.410583 36.282001,482.414032 35.125599,495.576477 
	C34.583008,501.752380 33.530926,508.565338 40.000000,513.000000 
z"/>
<path fill="#1E81CE" opacity="1.000000" stroke="none" 
	d="
M40.468658,513.000000 
	C33.530926,508.565338 34.583008,501.752380 35.125599,495.576477 
	C36.282001,482.414032 38.544266,469.410583 42.944050,456.853455 
	C49.684635,437.615692 60.044182,420.677612 73.786087,405.573425 
	C90.714073,386.967377 111.324448,374.131226 134.895340,366.288574 
	C144.999054,362.926788 155.845657,361.083740 166.488617,360.240326 
	C179.331482,359.222595 192.316559,359.999268 205.943069,359.999268 
	C205.943069,350.587830 206.376114,342.298157 205.649277,334.111511 
	C205.459244,331.971283 201.859818,329.865692 199.490799,328.230042 
	C182.798691,316.705322 169.823303,301.954407 161.011322,283.702179 
	C157.350525,276.119568 154.445953,268.174103 151.081192,260.444275 
	C150.496323,259.100616 149.577179,257.340515 148.395401,256.905426 
	C136.231186,252.426987 129.623566,242.662964 125.434929,231.431976 
	C122.569267,223.748260 120.963234,215.378571 120.186142,207.183548 
	C119.066414,195.375290 123.752007,185.393951 132.756790,177.786331 
	C119.405632,157.849426 111.665115,136.601639 111.787834,112.373077 
	C111.877869,94.597893 115.332672,77.888924 123.071465,62.123066 
	C130.980881,46.009636 142.515930,32.727596 156.954254,22.002810 
	C170.658401,11.823378 186.144501,5.752180 202.687302,2.131749 
	C204.290970,1.780785 205.988403,1.858155 207.821152,1.368346 
	C217.354233,1.000000 226.708450,1.000000 236.531342,1.000000 
	C243.863464,2.670032 250.854385,3.941924 257.564758,6.090138 
	C273.182037,11.089738 287.175385,19.122391 298.940247,30.601515 
	C302.840057,34.406590 306.080078,36.310555 312.157806,35.317787 
	C322.427948,33.640205 332.777771,35.979218 342.622528,39.354332 
	C352.921173,42.885063 362.459473,48.311440 370.115051,55.903976 
	C382.659790,68.345345 390.683502,83.329430 393.162354,101.272324 
	C394.707306,112.455383 393.825714,123.229645 390.931915,133.902374 
	C388.264771,143.739212 383.413116,152.576492 376.995392,160.528992 
	C375.882812,161.907593 374.901978,163.392456 373.697357,165.052811 
	C381.964264,168.532562 387.990845,173.850998 391.482391,181.911621 
	C394.975281,189.975388 394.394287,198.192780 393.193481,206.577621 
	C391.593872,217.747192 388.189850,228.209320 380.898865,236.923309 
	C377.805389,240.620483 373.883575,243.830490 369.806061,246.425842 
	C367.099213,248.148758 365.618622,249.886520 364.950714,252.954407 
	C360.491364,273.437256 351.331299,291.811646 337.644653,307.477814 
	C330.227661,315.967529 320.917175,322.845856 312.168365,330.098267 
	C310.047028,331.856781 308.864502,333.202087 308.936127,336.021210 
	C309.125732,343.483856 309.000397,350.954529 309.000397,358.999695 
	C316.288177,358.999695 323.228210,359.059692 330.166901,358.989075 
	C356.719452,358.718781 381.910400,364.361511 404.930450,377.676697 
	C414.200348,383.038574 422.553375,390.049622 431.064178,396.644958 
	C444.117371,406.760193 453.473511,420.175446 461.392273,434.279633 
	C469.277557,448.324188 474.995392,463.512817 476.957306,479.741547 
	C477.903259,487.566528 478.222595,495.465424 479.048462,503.307434 
	C479.453918,507.157654 478.226044,510.053131 475.105103,512.658508 
	C330.312439,513.000000 185.624878,513.000000 40.468658,513.000000 
M166.897934,179.641663 
	C165.932083,183.033798 164.230865,186.404907 164.133240,189.821854 
	C163.790771,201.810059 163.995010,213.814011 164.001694,225.811996 
	C164.010406,241.437836 167.664124,256.372559 174.240341,270.345886 
	C186.517258,296.432190 206.134460,315.384949 232.915176,326.261230 
	C242.571594,330.182922 252.380066,334.521606 263.567719,332.074982 
	C283.914856,327.625275 301.607727,318.026642 316.374084,303.752197 
	C327.180206,293.306030 336.061859,281.049652 341.676880,266.773041 
	C346.244141,255.160339 349.790833,243.290436 349.942169,230.739120 
	C350.165192,212.244919 349.808594,193.742981 350.103638,175.250809 
	C350.206543,168.803299 347.737701,163.531036 344.753967,158.254639 
	C339.256592,148.533005 331.529327,140.741501 323.087341,133.624405 
	C315.474731,127.206505 307.712524,120.966080 300.248871,114.838333 
	C286.713959,125.094383 273.650940,134.930740 260.654633,144.854462 
	C238.011627,162.144241 212.579605,171.525253 184.001053,171.980057 
	C177.449051,172.084320 171.753387,173.951065 166.897934,179.641663 
M325.888794,112.574417 
	C339.189819,124.059113 352.021942,135.989838 362.392029,152.381638 
	C366.372009,144.894058 370.596802,138.965210 372.839172,132.363022 
	C380.772308,109.005531 375.309540,83.588013 354.976959,66.425293 
	C341.130646,54.737625 325.000885,51.051613 307.433258,53.507092 
	C301.382294,54.352852 296.834961,53.827881 292.283722,49.050686 
	C272.880066,28.683704 249.329178,18.070730 220.709412,18.896643 
	C191.790817,19.731173 168.387207,31.345798 150.220474,53.457146 
	C136.259552,70.449440 129.375992,90.380028 129.106308,112.290413 
	C128.886551,130.145782 134.613571,146.566406 143.586121,161.851166 
	C145.529724,165.162109 148.179428,168.058548 150.647980,171.337296 
	C152.737091,168.909363 154.199371,167.110748 155.765427,165.407562 
	C161.516800,159.152557 168.645142,155.658493 177.119812,155.009445 
	C182.234467,154.617691 187.372696,154.493378 192.475586,153.995438 
	C210.660904,152.220932 227.572708,146.472565 242.450653,135.911850 
	C259.640717,123.709938 276.307831,110.771477 293.208832,98.161980 
	C298.540161,94.184395 300.772095,93.973206 306.180695,97.823425 
	C312.669342,102.442505 318.934021,107.376213 325.888794,112.574417 
M195.499817,495.996826 
	C200.831024,495.996704 206.175064,495.772705 211.488800,496.077454 
	C214.873169,496.271515 216.300674,494.910156 216.855209,491.822083 
	C221.184265,467.713715 225.520401,443.606537 229.939392,419.514557 
	C230.813416,414.749542 230.047348,410.964264 226.794235,406.897675 
	C219.549698,397.841614 213.133408,388.125366 206.270370,378.758148 
	C205.614609,377.863129 204.182129,377.000275 203.124954,377.017700 
	C189.666824,377.238770 176.116501,376.731873 162.774857,378.151154 
	C134.304062,381.179901 110.122696,394.094604 89.964874,413.984344 
	C72.066376,431.644775 60.460571,453.183624 55.268574,477.921265 
	C54.065365,483.654053 53.625854,489.547119 52.749245,495.996826 
	C100.621536,495.996826 147.560699,495.996826 195.499817,495.996826 
M290.152832,403.680634 
	C287.288971,408.138428 282.732788,411.596497 284.098328,418.161102 
	C287.029968,432.254578 289.408325,446.463196 292.007812,460.625671 
	C294.151123,472.302979 296.286713,483.981720 298.426727,495.665283 
	C352.750366,495.665283 406.621460,495.665283 460.963898,495.665283 
	C460.963898,493.888336 461.227142,492.373444 460.921753,490.983490 
	C458.724823,480.984863 457.483429,470.613586 453.947968,461.100433 
	C440.017334,423.616028 413.978882,397.992340 376.416534,383.902618 
	C355.105011,375.908600 333.019012,376.838745 310.944366,377.017456 
	C309.941772,377.025574 308.649811,377.990601 307.997803,378.880188 
	C302.119385,386.900604 296.353943,395.003784 290.152832,403.680634 
M270.826508,399.726257 
	C277.250336,391.272125 283.684387,382.825684 290.076630,374.347748 
	C290.536865,373.737366 290.946259,372.898438 290.950531,372.163269 
	C291.007935,362.309540 290.988953,352.455353 290.988953,341.729279 
	C268.512634,353.021240 246.506332,353.731354 224.003006,341.824371 
	C224.003006,353.070770 223.950729,362.876099 224.073273,372.679260 
	C224.087601,373.825195 224.898819,375.081421 225.625473,376.079010 
	C231.098053,383.592163 236.479935,391.182831 242.279495,398.438080 
	C243.700455,400.215729 246.493439,401.653046 248.771545,401.840912 
	C254.560562,402.318268 260.418488,402.104095 266.241150,401.921509 
	C267.593506,401.879150 268.915161,400.858337 270.826508,399.726257 
M275.920715,468.810028 
	C274.613892,462.268677 273.245392,455.738922 272.014740,449.183289 
	C270.194214,439.485016 268.471497,429.768433 266.696747,420.002472 
	C261.011505,420.002472 255.839310,419.777405 250.712097,420.158020 
	C249.402435,420.255219 247.429779,422.095703 247.140045,423.433685 
	C245.795593,429.642670 245.050217,435.978088 243.880783,442.229004 
	C240.620804,459.654327 237.256989,477.060242 233.901245,494.646301 
	C249.424362,494.646301 264.631134,494.646301 280.176666,494.646301 
	C278.735992,486.062744 277.361694,477.874695 275.920715,468.810028 
M145.999557,195.918152 
	C145.933792,194.685150 145.868011,193.452164 145.789886,191.987579 
	C140.104645,195.306168 137.065903,201.468887 138.050980,206.908234 
	C138.427261,208.985992 138.446320,211.157150 139.047043,213.160110 
	C140.804657,219.020569 142.773071,224.817780 144.658905,230.639771 
	C145.105820,230.494019 145.552719,230.348251 145.999634,230.202499 
	C145.999634,219.076904 145.999634,207.951309 145.999557,195.918152 
M369.000275,207.483826 
	C369.000275,211.747604 369.000275,216.011383 369.000275,221.640533 
	C377.887512,205.663879 378.639252,186.888626 369.000275,183.647522 
	C369.000275,191.309784 369.000275,198.899673 369.000275,207.483826 
z"/>
<path fill="#FFFFFF" opacity="1.000000" stroke="none" 
	d="
M167.148956,179.360291 
	C171.753387,173.951065 177.449051,172.084320 184.001053,171.980057 
	C212.579605,171.525253 238.011627,162.144241 260.654633,144.854462 
	C273.650940,134.930740 286.713959,125.094383 300.248871,114.838333 
	C307.712524,120.966080 315.474731,127.206505 323.087341,133.624405 
	C331.529327,140.741501 339.256592,148.533005 344.753967,158.254639 
	C347.737701,163.531036 350.206543,168.803299 350.103638,175.250809 
	C349.808594,193.742981 350.165192,212.244919 349.942169,230.739120 
	C349.790833,243.290436 346.244141,255.160339 341.676880,266.773041 
	C336.061859,281.049652 327.180206,293.306030 316.374084,303.752197 
	C301.607727,318.026642 283.914856,327.625275 263.567719,332.074982 
	C252.380066,334.521606 242.571594,330.182922 232.915176,326.261230 
	C206.134460,315.384949 186.517258,296.432190 174.240341,270.345886 
	C167.664124,256.372559 164.010406,241.437836 164.001694,225.811996 
	C163.995010,213.814011 163.790771,201.810059 164.133240,189.821854 
	C164.230865,186.404907 165.932083,183.033798 167.148956,179.360291 
z"/>
<path fill="#57A4FF" opacity="1.000000" stroke="none" 
	d="
M325.592224,112.374039 
	C318.934021,107.376213 312.669342,102.442505 306.180695,97.823425 
	C300.772095,93.973206 298.540161,94.184395 293.208832,98.161980 
	C276.307831,110.771477 259.640717,123.709938 242.450653,135.911850 
	C227.572708,146.472565 210.660904,152.220932 192.475586,153.995438 
	C187.372696,154.493378 182.234467,154.617691 177.119812,155.009445 
	C168.645142,155.658493 161.516800,159.152557 155.765427,165.407562 
	C154.199371,167.110748 152.737091,168.909363 150.647980,171.337296 
	C148.179428,168.058548 145.529724,165.162109 143.586121,161.851166 
	C134.613571,146.566406 128.886551,130.145782 129.106308,112.290413 
	C129.375992,90.380028 136.259552,70.449440 150.220474,53.457146 
	C168.387207,31.345798 191.790817,19.731173 220.709412,18.896643 
	C249.329178,18.070730 272.880066,28.683704 292.283722,49.050686 
	C296.834961,53.827881 301.382294,54.352852 307.433258,53.507092 
	C325.000885,51.051613 341.130646,54.737625 354.976959,66.425293 
	C375.309540,83.588013 380.772308,109.005531 372.839172,132.363022 
	C370.596802,138.965210 366.372009,144.894058 362.392029,152.381638 
	C352.021942,135.989838 339.189819,124.059113 325.592224,112.374039 
z"/>
<path fill="#57A4FF" opacity="1.000000" stroke="none" 
	d="
M194.999847,495.996826 
	C147.560699,495.996826 100.621536,495.996826 52.749245,495.996826 
	C53.625854,489.547119 54.065365,483.654053 55.268574,477.921265 
	C60.460571,453.183624 72.066376,431.644775 89.964874,413.984344 
	C110.122696,394.094604 134.304062,381.179901 162.774857,378.151154 
	C176.116501,376.731873 189.666824,377.238770 203.124954,377.017700 
	C204.182129,377.000275 205.614609,377.863129 206.270370,378.758148 
	C213.133408,388.125366 219.549698,397.841614 226.794235,406.897675 
	C230.047348,410.964264 230.813416,414.749542 229.939392,419.514557 
	C225.520401,443.606537 221.184265,467.713715 216.855209,491.822083 
	C216.300674,494.910156 214.873169,496.271515 211.488800,496.077454 
	C206.175064,495.772705 200.831024,495.996704 194.999847,495.996826 
z"/>
<path fill="#57A4FF" opacity="1.000000" stroke="none" 
	d="
M290.354095,403.381653 
	C296.353943,395.003784 302.119385,386.900604 307.997803,378.880188 
	C308.649811,377.990601 309.941772,377.025574 310.944366,377.017456 
	C333.019012,376.838745 355.105011,375.908600 376.416534,383.902618 
	C413.978882,397.992340 440.017334,423.616028 453.947968,461.100433 
	C457.483429,470.613586 458.724823,480.984863 460.921753,490.983490 
	C461.227142,492.373444 460.963898,493.888336 460.963898,495.665283 
	C406.621460,495.665283 352.750366,495.665283 298.426727,495.665283 
	C296.286713,483.981720 294.151123,472.302979 292.007812,460.625671 
	C289.408325,446.463196 287.029968,432.254578 284.098328,418.161102 
	C282.732788,411.596497 287.288971,408.138428 290.354095,403.381653 
z"/>
<path fill="#FFFFFF" opacity="1.000000" stroke="none" 
	d="
M270.538727,400.006958 
	C268.915161,400.858337 267.593506,401.879150 266.241150,401.921509 
	C260.418488,402.104095 254.560562,402.318268 248.771545,401.840912 
	C246.493439,401.653046 243.700455,400.215729 242.279495,398.438080 
	C236.479935,391.182831 231.098053,383.592163 225.625473,376.079010 
	C224.898819,375.081421 224.087601,373.825195 224.073273,372.679260 
	C223.950729,362.876099 224.003006,353.070770 224.003006,341.824371 
	C246.506332,353.731354 268.512634,353.021240 290.988953,341.729279 
	C290.988953,352.455353 291.007935,362.309540 290.950531,372.163269 
	C290.946259,372.898438 290.536865,373.737366 290.076630,374.347748 
	C283.684387,382.825684 277.250336,391.272125 270.538727,400.006958 
z"/>
<path fill="#FFFFFF" opacity="1.000000" stroke="none" 
	d="
M275.954071,469.248352 
	C277.361694,477.874695 278.735992,486.062744 280.176666,494.646301 
	C264.631134,494.646301 249.424362,494.646301 233.901245,494.646301 
	C237.256989,477.060242 240.620804,459.654327 243.880783,442.229004 
	C245.050217,435.978088 245.795593,429.642670 247.140045,423.433685 
	C247.429779,422.095703 249.402435,420.255219 250.712097,420.158020 
	C255.839310,419.777405 261.011505,420.002472 266.696747,420.002472 
	C268.471497,429.768433 270.194214,439.485016 272.014740,449.183289 
	C273.245392,455.738922 274.613892,462.268677 275.954071,469.248352 
z"/>
<path fill="#FFFFFF" opacity="1.000000" stroke="none" 
	d="
M145.999603,196.371933 
	C145.999634,207.951309 145.999634,219.076904 145.999634,230.202499 
	C145.552719,230.348251 145.105820,230.494019 144.658905,230.639771 
	C142.773071,224.817780 140.804657,219.020569 139.047043,213.160110 
	C138.446320,211.157150 138.427261,208.985992 138.050980,206.908234 
	C137.065903,201.468887 140.104645,195.306168 145.789886,191.987579 
	C145.868011,193.452164 145.933792,194.685150 145.999603,196.371933 
z"/>
<path fill="#FFFFFF" opacity="1.000000" stroke="none" 
	d="
M369.000275,206.986694 
	C369.000275,198.899673 369.000275,191.309784 369.000275,183.647522 
	C378.639252,186.888626 377.887512,205.663879 369.000275,221.640533 
	C369.000275,216.011383 369.000275,211.747604 369.000275,206.986694 
z"/>
</svg>